<svg width="31" height="31" viewBox="0 0 31 31" fill="none" xmlns="http://www.w3.org/2000/svg">
<path d="M29.45 3.61664H1.55C0.693988 3.61664 0 4.31057 0 5.16664V25.8333C0 26.6893 0.693928 27.3833 1.55 27.3833H29.45C30.306 27.3833 31 26.6894 31 25.8333V5.16664C31 4.31063 30.3061 3.61664 29.45 3.61664ZM29.9666 25.8333C29.9666 26.1187 29.7354 26.35 29.45 26.35H1.55C1.26464 26.35 1.03335 26.1187 1.03335 25.8333V5.16664C1.03335 4.88128 1.26464 4.64999 1.55 4.64999H29.45C29.7354 4.64999 29.9666 4.88128 29.9666 5.16664V25.8333Z" fill="#CC0000"/>
<path d="M28.4614 5.68522C28.3249 5.67329 28.1892 5.7161 28.0843 5.80426L16.1647 15.8172C15.7803 16.1403 15.2192 16.1403 14.8348 15.8172L2.91534 5.8042C2.77396 5.68553 2.57997 5.65126 2.40651 5.71435C2.23304 5.77744 2.10637 5.92832 2.07428 6.11014C2.04219 6.29196 2.10952 6.47706 2.2509 6.59573L14.1704 16.6082C14.9386 17.255 16.0609 17.255 16.8292 16.6082L28.7486 6.59579C28.8536 6.50769 28.9193 6.38151 28.9312 6.24498C28.9431 6.10845 28.9003 5.97276 28.8122 5.86783C28.7241 5.76278 28.5979 5.69715 28.4614 5.68522Z" fill="#CC0000"/>
<path d="M9.93719 16.5371C9.75428 16.4963 9.56368 16.5577 9.43895 16.6976L2.2056 24.4476C2.0747 24.5816 2.02662 24.7761 2.08002 24.9557C2.13343 25.1353 2.27989 25.2719 2.46274 25.3127C2.64565 25.3535 2.83625 25.2922 2.96098 25.1523L10.1943 17.4023C10.3252 17.2682 10.3733 17.0738 10.3199 16.8942C10.2665 16.7146 10.1201 16.5779 9.93719 16.5371Z" fill="#CC0000"/>
<path d="M21.5611 16.6976C21.4364 16.5577 21.2458 16.4963 21.0628 16.5371C20.8799 16.5779 20.7335 16.7146 20.6801 16.8942C20.6267 17.0738 20.6748 17.2682 20.8057 17.4023L28.0391 25.1523C28.2352 25.3532 28.5559 25.3607 28.7612 25.1691C28.9665 24.9776 28.9813 24.6571 28.7944 24.4475L21.5611 16.6976Z" fill="#CC0000"/>
</svg>
