<svg width="26" height="26" viewBox="0 0 26 26" fill="none" xmlns="http://www.w3.org/2000/svg">
<g clip-path="url(#clip0)">
<path d="M25.3177 20.0588L24.3078 19.386C26.5855 15.3799 26.56 10.4647 24.241 6.48249C21.9221 2.50026 17.6597 0.0522551 13.0515 0.0560631C12.8122 0.0560631 12.6182 0.250019 12.6182 0.489315C12.6182 0.728612 12.8122 0.922567 13.0515 0.922567C17.3397 0.919369 21.3077 3.19165 23.4752 6.89183C25.6427 10.592 25.6842 15.1643 23.5843 18.9033L20.0536 16.5493C19.3857 16.1077 18.4907 16.2531 17.9968 16.8833L16.4657 18.8543C16.2685 19.1139 15.9106 19.1892 15.6255 19.0311L15.334 18.8703C14.3673 18.3434 13.1646 17.6875 10.7413 15.2634C8.31804 12.8392 7.66077 11.6356 7.1339 10.6707L6.97401 10.3791C6.81351 10.0942 6.88744 9.73455 7.1473 9.53597L9.11691 8.00352C9.74712 7.50975 9.89269 6.61481 9.45141 5.94678L5.94193 0.684286C5.48964 0.00407082 4.58231 -0.200141 3.88219 0.220722L1.68161 1.54262C0.990173 1.94911 0.482893 2.60744 0.26614 3.37966C-0.526286 6.26696 0.069848 11.25 7.41031 18.5913C10.6078 21.7888 13.3569 23.7039 15.6814 24.7871C12.1037 25.5954 8.35257 24.7302 5.4904 22.4364C2.62824 20.1426 0.966665 16.67 0.976261 13.0022C0.976261 12.7629 0.782305 12.5689 0.543009 12.5689C0.303712 12.5689 0.109757 12.7629 0.109757 13.0022C0.116459 20.1477 5.90604 25.9392 13.0515 25.9483C14.3902 25.9487 15.7206 25.7391 16.9943 25.327C18.1433 25.7561 19.3578 25.9839 20.5843 26.0003C21.2719 26.0032 21.9569 25.9137 22.6207 25.7343C23.3931 25.5178 24.0515 25.0104 24.4577 24.3188L25.781 22.1195C26.2024 21.4192 25.9983 20.5113 25.3177 20.0588ZM25.0361 21.6736L23.7159 23.8742C23.424 24.3742 22.9498 24.7418 22.3927 24.8997C21.1324 25.2463 19.4253 25.2896 17.2316 24.4989C17.1968 24.4794 17.1595 24.4649 17.1207 24.4556C14.6944 23.5549 11.6819 21.635 8.02203 17.9765C0.977124 10.932 0.370124 6.27478 1.10193 3.6089C1.26014 3.05202 1.62764 2.57784 2.12745 2.28569L4.32804 0.965522C4.63182 0.782737 5.02562 0.871337 5.22186 1.16654L7.12826 4.0287L8.72834 6.42857C8.91996 6.71834 8.857 7.10671 8.58364 7.32112L6.61357 8.85357C6.01403 9.31201 5.84282 10.1415 6.21195 10.7998L6.36838 11.0841C6.92212 12.0996 7.61056 13.363 10.124 15.876C12.6374 18.389 13.9004 19.0775 14.9155 19.6312L15.2001 19.788C15.8584 20.1571 16.6879 19.9859 17.1464 19.3864L18.6788 17.4163C18.8933 17.1431 19.2815 17.0802 19.5714 17.2716L24.8334 20.7811C25.1287 20.9766 25.218 21.3697 25.0361 21.6736Z" fill="#CC0000"/>
</g>
<defs>
<clipPath id="clip0">
<rect width="26" height="26" fill="white"/>
</clipPath>
</defs>
</svg>
