<svg width="32" height="60" viewBox="0 0 32 60" fill="none" xmlns="http://www.w3.org/2000/svg">
<path d="M24.1423 12.8458H29.5278C30.6816 12.8458 31.6204 11.9071 31.6204 10.7532V2.09941C31.6204 0.945526 30.6817 0.00681065 29.5278 0.00681065H22.1325C22.0616 0.00380934 21.9384 0 21.7659 0C20.3705 0 15.5182 0.275312 11.6686 3.81673C7.46662 7.68299 7.86867 12.3078 8.04552 13.448V19.0859H2.6927C1.53893 19.0859 0.600098 20.0246 0.600098 21.1785V30.4858C0.600098 31.6398 1.53881 32.5787 2.6927 32.5787H7.73581V57.0101C7.73581 58.1638 8.67452 59.1027 9.82841 59.1027H20.3754C21.5292 59.1027 22.468 58.1638 22.468 57.0101V32.6993H28.4417C29.5053 32.6993 30.399 31.9025 30.5205 30.8459L31.6067 21.4181C31.6749 20.8258 31.4866 20.2309 31.0899 19.7859C30.6931 19.3411 30.1239 19.086 29.528 19.086H22.4685V14.3535C22.4683 13.3756 22.735 12.8458 24.1423 12.8458ZM21.2911 21.4407H29.2338L28.208 30.3447H21.2907C20.6406 30.3447 20.1134 30.8717 20.1134 31.522V56.7479H10.0903V31.4012C10.0903 30.751 9.56314 30.2239 8.91301 30.2239H2.95462V21.4405H9.22284C9.87297 21.4405 10.4002 20.9134 10.4002 20.2632V13.3523C10.4002 13.2848 10.3944 13.2173 10.3828 13.1507C10.2587 12.4379 9.81513 8.72201 13.2629 5.54964C16.4853 2.58516 20.586 2.35475 21.766 2.35475C21.9314 2.35475 22.0299 2.35914 22.0479 2.36006C22.0673 2.36099 22.0867 2.36145 22.106 2.36145H29.266V10.4913H24.1424C21.6197 10.4913 20.1136 11.9351 20.1136 14.3535V20.2633C20.1136 20.9136 20.6409 21.4407 21.2911 21.4407Z" fill="white"/>
<path d="M12.4603 39.6764C11.8101 39.6764 11.283 40.2035 11.283 40.8537V41.4424C11.283 42.0927 11.8101 42.6197 12.4603 42.6197C13.1104 42.6197 13.6376 42.0927 13.6376 41.4424V40.8537C13.6376 40.2035 13.1103 39.6764 12.4603 39.6764Z" fill="white"/>
<path d="M12.4603 44.0326C11.8101 44.0326 11.283 44.5597 11.283 45.2099V54.1577C11.283 54.808 11.8101 55.335 12.4603 55.335C13.1104 55.335 13.6376 54.808 13.6376 54.1577V45.2099C13.6376 44.5597 13.1103 44.0326 12.4603 44.0326Z" fill="white"/>
</svg>
