<svg width="189" height="44" viewBox="0 0 189 44" fill="none" xmlns="http://www.w3.org/2000/svg">
<path fill-rule="evenodd" clip-rule="evenodd" d="M56.9673 19.9561C56.9673 20.8273 57.6761 21.5502 58.5472 21.5502V18.3762C57.6761 18.376 56.9673 19.0848 56.9673 19.9561Z" fill="#CC0000"/>
<path fill-rule="evenodd" clip-rule="evenodd" d="M60.1273 23.1302C60.1273 22.259 59.4185 21.5502 58.5474 21.5502V24.7242C59.4185 24.7242 60.1273 24.0013 60.1273 23.1302Z" fill="#CC0000"/>
<path fill-rule="evenodd" clip-rule="evenodd" d="M68.1115 21.543C68.1115 16.261 63.8294 11.9789 58.5474 11.9789C53.2654 11.9789 48.9834 16.261 48.9834 21.543C48.9834 26.825 53.2654 31.107 58.5474 31.107C60.1274 31.107 61.6164 30.7215 62.9296 30.043L68.1115 31.0443L67.1511 25.723C67.7658 24.46 68.1115 23.0421 68.1115 21.543ZM58.5474 27.898V24.7241C55.9184 24.7241 53.7795 22.5852 53.7795 19.9561C53.7795 17.3271 55.9184 15.1882 58.5474 15.1882V18.3762C61.1765 18.3762 63.3154 20.5013 63.3154 23.1303C63.3154 25.7594 61.1767 27.898 58.5474 27.898Z" fill="#CC0000"/>
<path fill-rule="evenodd" clip-rule="evenodd" d="M185.271 26.3249V14.8433L186.383 14.5585L185.196 9.92609L175.798 12.3344L175.192 9.96859L161.361 13.5129V11.9789H156.579V31.107H161.361V18.4495L168.534 16.6113V31.107H173.316V17.907L180.489 16.0689V31.107H182.377H185.271H188.016V26.3249H185.271Z" fill="#1D1D1D"/>
<path fill-rule="evenodd" clip-rule="evenodd" d="M101.586 11.9789C96.3038 11.9789 92.0217 16.261 92.0217 21.543C92.0217 26.825 96.3038 31.107 101.586 31.107C106.868 31.107 111.15 26.825 111.15 21.543C111.15 16.261 106.868 11.9789 101.586 11.9789ZM101.586 26.325C98.949 26.325 96.8037 24.1797 96.8037 21.543C96.8037 18.9062 98.949 16.761 101.586 16.761C104.223 16.761 106.368 18.9062 106.368 21.543C106.368 24.1797 104.223 26.325 101.586 26.325Z" fill="#1D1D1D"/>
<path fill-rule="evenodd" clip-rule="evenodd" d="M144.624 11.9789C139.342 11.9789 135.06 16.261 135.06 21.543C135.06 26.825 139.342 31.107 144.624 31.107C149.906 31.107 154.188 26.825 154.188 21.543C154.188 16.261 149.906 11.9789 144.624 11.9789ZM144.624 26.325C141.987 26.325 139.842 24.1797 139.842 21.543C139.842 18.9062 141.987 16.761 144.624 16.761C147.261 16.761 149.406 18.9062 149.406 21.543C149.406 24.1797 147.261 26.325 144.624 26.325Z" fill="#1D1D1D"/>
<path fill-rule="evenodd" clip-rule="evenodd" d="M37.0286 11.9789C35.2859 11.9789 33.6536 12.4473 32.2466 13.2616V11.9789H27.4646V43.0621H32.2466V29.8244C33.6536 30.6386 35.2859 31.107 37.0286 31.107C42.3109 31.107 46.5927 26.825 46.5927 21.543C46.5927 16.261 42.3109 11.9789 37.0286 11.9789ZM37.0286 26.325C34.3919 26.325 32.2466 24.1797 32.2466 21.543C32.2466 18.9062 34.3919 16.761 37.0286 16.761C39.6654 16.761 41.8106 18.9062 41.8106 21.543C41.8106 24.1797 39.6654 26.325 37.0286 26.325Z" fill="#1D1D1D"/>
<path fill-rule="evenodd" clip-rule="evenodd" d="M0 13.4154L1.187 18.0476L3.55437 17.4411V31.107H8.33638V16.2156L17.9004 13.7648V31.107H22.6824V12.5393L24.9201 11.979L23.7331 7.3468L0 13.4154Z" fill="#1D1D1D"/>
<path fill-rule="evenodd" clip-rule="evenodd" d="M83.2545 12.5252C83.7858 11.3932 84.0844 10.131 84.0844 8.79997C84.0844 3.94782 80.1369 0 75.2847 0H70.5027V21.5191H70.5035C70.5035 21.527 70.5027 21.5348 70.5027 21.5427C70.5027 26.8247 74.7847 31.1068 80.0667 31.1068C85.349 31.1068 89.6308 26.8247 89.6308 21.5427C89.6308 17.3789 86.969 13.8384 83.2545 12.5252ZM75.2847 4.78228C77.5001 4.78228 79.3024 6.58457 79.3024 8.80024C79.3024 11.0156 77.5001 12.8179 75.2847 12.8179V4.78228ZM80.0667 26.325C77.43 26.325 75.2847 24.1797 75.2847 21.543C75.2847 18.9062 77.43 16.761 80.0667 16.761C82.7035 16.761 84.8487 18.9062 84.8487 21.543C84.8487 24.1797 82.7035 26.325 80.0667 26.325Z" fill="#1D1D1D"/>
<path fill-rule="evenodd" clip-rule="evenodd" d="M123.105 11.9789C121.362 11.9789 119.73 12.4472 118.323 13.2615V9.53631H130.278V8.01032V4.7543V2.00916H125.496V4.7543H113.541V4.80584V9.53631V21.5429C113.541 26.8249 117.823 31.1069 123.105 31.1069C128.387 31.1069 132.669 26.8249 132.669 21.5429C132.669 16.2609 128.387 11.9789 123.105 11.9789ZM123.105 26.3249C120.468 26.3249 118.323 24.1796 118.323 21.5429C118.323 18.9061 120.468 16.7609 123.105 16.7609C125.742 16.7609 127.887 18.9061 127.887 21.5429C127.887 24.1796 125.742 26.3249 123.105 26.3249Z" fill="#1D1D1D"/>
</svg>
