<svg width="57" height="57" viewBox="0 0 57 57" fill="none" xmlns="http://www.w3.org/2000/svg">
<path d="M28.5019 0C20.6431 0 14.252 6.39112 14.252 14.25C14.252 22.1089 20.6431 28.5 28.5019 28.5C36.3608 28.5 42.7519 22.1089 42.7519 14.25C42.7519 6.39112 36.3608 0 28.5019 0ZM28.5019 24.9375C22.6096 24.9375 17.8145 20.1424 17.8145 14.25C17.8145 8.35763 22.6096 3.5625 28.5019 3.5625C34.3943 3.5625 39.1894 8.35763 39.1894 14.25C39.1894 20.1424 34.3943 24.9375 28.5019 24.9375Z" fill="white"/>
<path d="M42.4313 54.1963L29.9626 36.3838C29.2999 35.4362 27.7146 35.4362 27.0449 36.3838L14.5761 54.1963C14.0132 55.0014 14.2056 56.1129 15.0143 56.6758C15.8194 57.2423 16.9309 57.0463 17.4938 56.2412L28.5019 40.5127L39.5136 56.2412C39.8592 56.7364 40.4114 57 40.9707 57C41.3269 57 41.6796 56.8967 41.9967 56.6758C42.8018 56.1129 42.9977 55.005 42.4313 54.1963Z" fill="white"/>
<path d="M46.1324 29.3621C45.4377 28.6674 44.3084 28.6674 43.6137 29.3621C35.2739 37.6983 21.7186 37.6983 13.3859 29.3621C12.6912 28.6674 11.5619 28.6674 10.8672 29.3621C10.1725 30.0568 10.1725 31.1861 10.8672 31.8808C15.73 36.74 22.1176 39.1732 28.5016 39.1732C34.8856 39.1732 41.2731 36.74 46.1324 31.8808C46.8271 31.1861 46.8271 30.0568 46.1324 29.3621Z" fill="white"/>
</svg>
