<svg width="59" height="60" viewBox="0 0 59 60" fill="none" xmlns="http://www.w3.org/2000/svg">
<path d="M49.6894 26.3396C49.7628 17.7225 42.4533 9.82682 33.3972 8.73899L31.5585 8.51517C31.5112 8.50937 31.4633 8.50659 31.4157 8.50659C29.5388 8.50659 28.234 9.60381 27.9252 11.4417C27.7088 12.7305 28.1048 13.6016 28.4754 14.1056C29.3475 15.2915 30.7444 15.4827 31.6676 15.6089L31.686 15.6114C31.892 15.6399 32.0863 15.6665 32.2229 15.6974C39.4062 17.3024 41.571 19.5583 42.751 26.6684C42.7715 26.7929 42.7841 26.9999 42.7964 27.1999C42.8278 27.7178 42.8803 28.5847 43.2737 29.3813C43.8188 30.4844 44.8455 31.0919 46.1647 31.0919C46.392 31.0919 46.6326 31.0729 46.8793 31.0352C48.1059 30.8488 49.0075 30.153 49.4185 29.0764C49.7143 28.3016 49.6939 27.5131 49.6775 27.0287L49.6892 26.3501C49.6893 26.3466 49.6893 26.3431 49.6894 26.3396ZM47.3132 27.0794C47.3566 28.3448 47.1441 28.6035 46.5234 28.6979C46.3938 28.7174 46.2731 28.7275 46.1642 28.7275C45.5478 28.7275 45.2475 28.5626 45.1561 27.0568C45.1403 26.7963 45.124 26.5272 45.0833 26.2816C44.3823 22.0581 43.2925 19.4311 41.4389 17.4974C39.5894 15.5678 36.9874 14.3394 32.7401 13.3904C32.508 13.3382 32.2655 13.3049 32.0089 13.2694L31.9892 13.2668C31.3658 13.1815 30.6592 13.0847 30.3801 12.705C30.3258 12.6313 30.1607 12.4067 30.2568 11.8337C30.3929 11.0238 30.8558 10.8825 31.3495 10.8719L33.1132 11.0864C41.0112 12.0352 47.3852 18.8655 47.325 26.3141L47.3128 27.0184C47.3123 27.0386 47.3126 27.0592 47.3132 27.0794Z" fill="white"/>
<path d="M58.4988 26.7664L58.498 26.7479C58.4898 26.5628 58.4819 26.388 58.4838 26.2531C58.5634 19.8011 55.874 13.2354 51.1053 8.23978C46.3363 3.24389 39.9039 0.25373 33.4467 0.0359325L32.019 0.000347734C32.0093 0.000115911 31.9995 0 31.9896 0C29.8467 0 28.4398 1.31884 28.3178 3.44221C28.241 4.78342 28.8227 5.83497 29.9556 6.40328C30.7534 6.80352 31.6427 6.86843 32.1753 6.90726C32.3669 6.92106 32.5652 6.93543 32.6978 6.95571C44.7376 8.80728 50.0267 14.2571 51.5611 26.3929C51.5802 26.5439 51.584 26.7839 51.5876 27.0169C51.5967 27.575 51.6117 28.5092 51.9953 29.3704C52.5249 30.5591 53.5906 31.2288 55.005 31.2559L55.0733 31.2567C55.0779 31.2568 55.0827 31.2568 55.0872 31.2568C56.0984 31.2568 56.9581 30.9164 57.5736 30.2724C58.6081 29.1904 58.5423 27.7314 58.4988 26.7664ZM55.8645 28.6389C55.8048 28.7016 55.6234 28.891 55.0936 28.8926L55.0418 28.892C54.2946 28.8777 53.9782 28.6085 53.9518 26.9788C53.947 26.6829 53.9421 26.377 53.9068 26.0967C53.0573 19.3787 51.0999 14.6409 47.747 11.1866C44.3933 7.73128 39.7254 5.64441 33.0564 4.61871C32.8296 4.58394 32.5834 4.56621 32.3458 4.54905C30.7127 4.42989 30.6482 4.10221 30.6782 3.57748C30.7358 2.57694 31.238 2.36691 31.9758 2.36447L33.3775 2.39948C45.6439 2.81351 56.271 13.9466 56.1195 26.2229C56.117 26.4252 56.1261 26.6331 56.136 26.8534L56.1368 26.8725C56.1668 27.5356 56.2008 28.2871 55.8645 28.6389Z" fill="white"/>
<path d="M52.8478 41.5992C52.6021 41.4116 52.3235 41.1988 52.0733 40.9973C52.0581 40.9849 52.0425 40.9731 52.0265 40.9614L46.9286 37.2592C46.9236 37.2555 46.9185 37.2519 46.9135 37.2483C44.9078 35.8395 43.0673 35.1546 41.2866 35.1546C38.8055 35.1546 36.6781 36.4708 34.9634 39.067C34.4123 39.9021 33.9222 40.0146 33.5154 40.0146C33.1103 40.0146 32.6015 39.8808 32.0436 39.6277C26.5051 37.1161 22.5552 33.277 20.3039 28.2168C19.2715 25.8969 19.8255 24.9293 21.131 24.0426C22.3751 23.1982 24.9636 21.4412 24.7761 18.0009C24.6393 15.4832 21.5135 11.0395 20.5588 9.73756C19.6033 8.4346 16.3036 4.11667 13.9557 3.25348C12.4569 2.70233 10.888 2.69502 9.29267 3.23181C5.60994 4.46986 2.95314 6.67391 1.60904 9.60588C0.305846 12.4488 0.351283 15.7545 1.74083 19.1654C5.45323 28.2794 10.6758 36.2281 17.2634 42.7909C24.9903 50.4893 32.7099 55.6093 40.8633 58.4436C41.6711 58.7244 43.2945 59.2152 44.2123 59.3362C44.2637 59.343 44.3156 59.3464 44.3674 59.3464C46.6776 59.3464 49.2257 58.3755 51.542 56.6125C53.8348 54.8675 55.5562 52.6106 56.3894 50.2574C58.048 45.5738 54.9188 43.1821 52.8478 41.5992ZM54.1607 49.4686C52.7786 53.3729 48.1672 56.9309 44.4475 56.9816C43.7541 56.8745 42.3924 56.4721 41.6399 56.2105C33.8296 53.4954 26.4019 48.558 18.9324 41.1161C12.5703 34.7777 7.52306 27.0925 3.93074 18.2735C2.79353 15.4823 2.73395 12.8257 3.75849 10.591C4.82348 8.26745 6.99775 6.49761 10.0463 5.47272C10.5824 5.29248 11.1107 5.20207 11.6276 5.20207C12.1442 5.20207 12.6493 5.29225 13.1398 5.47249C14.0361 5.80191 16.1435 7.71467 18.652 11.1354C21.1624 14.5588 22.3625 17.1604 22.4151 18.1289C22.521 20.0725 21.1828 21.1495 19.8028 22.0863C17.3149 23.7764 16.7721 26.096 18.1435 29.1778C20.6372 34.7826 24.9854 39.023 31.0667 41.7806C31.9411 42.1777 32.765 42.379 33.5154 42.379C34.9056 42.379 36.0567 41.7029 36.9364 40.3699C38.2036 38.4515 39.6265 37.519 41.2867 37.519C42.5624 37.519 43.9561 38.0616 45.5471 39.178L50.6137 42.8574C50.8809 43.072 51.1632 43.2875 51.4126 43.4781C53.7276 45.2474 55.1695 46.6203 54.1607 49.4686Z" fill="white"/>
<path d="M41.3252 27.1405C41.3423 24.8724 40.1855 22.3338 38.2273 20.3444C36.2369 18.3228 33.8031 17.1952 31.5547 17.2489C31.5543 17.2489 31.5525 17.2489 31.552 17.249C30.7955 17.2681 28.4934 17.3267 27.6957 19.6417C27.2381 20.9685 27.5475 21.9241 27.8875 22.492C28.5912 23.6673 29.8205 24.0015 30.8135 24.1616C33.1397 24.5348 34.1866 25.6664 34.4268 28.0665C34.6221 30.0251 36.0557 31.4465 37.8357 31.4465C37.9729 31.4465 38.1102 31.4383 38.24 31.4224C39.2041 31.3078 41.4303 30.6608 41.3252 27.1405ZM37.9569 29.0749C37.9179 29.0796 37.8772 29.082 37.8356 29.082C37.1922 29.082 36.8416 28.4543 36.7796 27.8315C36.4349 24.3873 34.5537 22.367 31.1888 21.827C30.4568 21.7092 30.0762 21.5448 29.9161 21.2774C29.8717 21.203 29.7363 20.9768 29.9312 20.4121C30.1535 19.7665 30.6717 19.6362 31.612 19.6123C33.2152 19.5773 35.0088 20.445 36.5425 22.0027C38.076 23.5605 38.9801 25.4808 38.961 27.1395C38.9608 27.157 38.961 27.1745 38.9616 27.192C39.0192 28.9485 38.3307 29.0303 37.9569 29.0749Z" fill="white"/>
<path d="M28.0531 43.9866C25.9133 42.3902 23.8124 40.5575 21.6306 38.3837C19.9534 36.7127 18.3765 34.8943 16.9434 32.9788C16.5522 32.4559 15.8114 32.3492 15.2885 32.7404C14.7658 33.1314 14.659 33.8723 15.0501 34.3951C16.5515 36.4019 18.2039 38.3073 19.9618 40.0585C22.2242 42.3125 24.4083 44.2173 26.6394 45.8817C26.8516 46.04 27.0995 46.1164 27.3454 46.1164C27.7057 46.1164 28.0617 45.952 28.2939 45.6412C28.6841 45.1177 28.5765 44.3771 28.0531 43.9866Z" fill="white"/>
<path d="M14.2134 28.9399C14.0037 28.5958 13.7959 28.2456 13.5955 27.8992C13.2686 27.334 12.5455 27.1408 11.9803 27.4675C11.4151 27.7944 11.2218 28.5176 11.5486 29.0827C11.7578 29.4447 11.9752 29.8107 12.1943 30.1701C12.417 30.5357 12.8061 30.7374 13.2049 30.7374C13.4146 30.7374 13.6269 30.6816 13.819 30.5646C14.3765 30.2249 14.5532 29.4975 14.2134 28.9399Z" fill="white"/>
</svg>
