<svg width="62" height="56" viewBox="0 0 62 56" fill="none" xmlns="http://www.w3.org/2000/svg">
<path d="M46.5489 11.8142L21.1076 27.4836C19.6679 28.3724 18.9866 30.1278 19.4504 31.7514L22.2013 41.4171C22.4363 42.2412 23.1697 42.789 24.0135 42.789C24.0605 42.789 24.108 42.7874 24.1556 42.7839C25.0577 42.7184 25.7715 42.0465 25.8915 41.1509L26.6067 35.851C26.7031 35.1379 27.0467 34.4746 27.5734 33.9843L48.568 14.4687C49.2024 13.8804 49.2863 12.9171 48.7635 12.228C48.2398 11.5384 47.2884 11.3601 46.5489 11.8142ZM25.8947 32.1798C24.9513 33.0579 24.3367 34.2445 24.1642 35.5211L23.8173 38.092L21.8205 31.0756C21.6582 30.5073 21.8972 29.8927 22.401 29.5817L41.0387 18.1028L25.8947 32.1798Z" fill="white"/>
<path d="M60.8543 1.60036C60.0594 0.926654 58.9626 0.741193 57.9911 1.11647L1.82202 22.7849C0.709619 23.2139 -0.00564505 24.2613 3.35662e-05 25.4532C0.00583301 26.6462 0.731609 27.6878 1.85054 28.1071L14.9706 33.0039L20.0885 49.4628C20.3695 50.3676 21.0788 51.0707 21.9857 51.3435C22.8921 51.6161 23.871 51.4212 24.6027 50.8228L32.2314 44.6037C32.5977 44.305 33.1209 44.2903 33.5034 44.5681L47.2629 54.5577C47.758 54.9175 48.3421 55.1027 48.9331 55.1027C49.2792 55.1027 49.6277 55.0392 49.9621 54.9099C50.8666 54.5601 51.5243 53.7848 51.7213 52.8363L61.8013 4.34941C62.013 3.32847 61.6502 2.27515 60.8543 1.60036ZM59.3883 3.84861L49.3083 52.3353C49.2719 52.5105 49.1457 52.5834 49.0737 52.6113C49.0012 52.6393 48.858 52.6704 48.7116 52.5638L34.9516 42.5737C34.3365 42.1271 33.6132 41.9054 32.8913 41.9054C32.1038 41.9054 31.3174 42.1694 30.6746 42.693L23.0442 48.9135C22.9084 49.0247 22.7674 49.0049 22.6957 48.9832C22.6234 48.9615 22.4945 48.8999 22.4421 48.7312L17.1446 31.6946C17.0314 31.3306 16.756 31.0394 16.3988 30.906L2.71393 25.7985C2.50902 25.7218 2.4654 25.562 2.4648 25.4413C2.46419 25.3216 2.50624 25.1625 2.70922 25.0842L58.8784 3.41594C58.8786 3.41582 58.879 3.4157 58.8794 3.41558C59.0618 3.34514 59.1968 3.42609 59.261 3.48046C59.3255 3.53544 59.4282 3.65626 59.3883 3.84861Z" fill="white"/>
<path d="M51.649 27.548C50.9838 27.4035 50.3277 27.8258 50.1834 28.4909L49.9961 29.3536C49.8517 30.0187 50.2739 30.6749 50.939 30.8192C51.0271 30.8383 51.1149 30.8475 51.2016 30.8475C51.7689 30.8475 52.2794 30.4534 52.4048 29.8765L52.5921 29.0138C52.7363 28.3487 52.314 27.6925 51.649 27.548Z" fill="white"/>
<path d="M50.4166 33.2242C49.7506 33.0798 49.0951 33.502 48.9508 34.1671L46.1164 47.222C45.9721 47.8871 46.3942 48.5433 47.0592 48.6877C47.1474 48.7068 47.2352 48.716 47.3219 48.716C47.8893 48.716 48.3996 48.3219 48.525 47.7449L51.3594 34.6899C51.5038 34.0248 51.0816 33.3686 50.4166 33.2242Z" fill="white"/>
</svg>
