<svg width="69" height="40" viewBox="0 0 69 40" fill="none" xmlns="http://www.w3.org/2000/svg">
<path d="M65.0277 30.2162C63.5581 28.4549 61.8977 26.8823 60.2918 25.3614C59.7276 24.8268 59.1438 24.274 58.5816 23.7252C58.5815 23.7251 58.5813 23.7249 58.5812 23.7248C57.8251 22.9872 57.4549 22.4637 57.4162 22.0771C57.3782 21.697 57.6379 21.1332 58.2353 20.2997C59.1286 19.046 60.0807 17.7903 61.0018 16.5759C61.8205 15.4965 62.6669 14.3802 63.4782 13.2576L63.6603 13.0055C65.2432 10.8147 66.8799 8.54925 67.7569 5.78858C68.0074 4.99706 68.2674 3.82575 67.6401 2.79749C67.0125 1.76897 65.849 1.46414 65.0289 1.32452C64.6284 1.2559 64.2484 1.25022 63.8947 1.25022L53.6272 1.24112C51.852 1.21156 50.6205 2.05295 49.9493 3.74262C49.4122 5.09207 48.7779 6.65597 48.043 8.13951C46.6369 11.0035 44.8503 14.3022 42.2606 17.0506L42.1455 17.1731C41.9692 17.3612 41.6812 17.669 41.5332 17.7396C41.2527 17.5633 40.929 16.555 40.9438 16.0267C40.9441 16.0136 40.9443 16.0007 40.9443 15.9878L40.9352 4.12386C40.9352 4.06355 40.931 4.00324 40.9229 3.94346C40.6926 2.2509 40.2437 0.554115 37.5648 0.0254691C37.4789 0.00844577 37.3916 0 37.3042 0H26.6237C24.6143 0 23.5515 0.920181 22.6994 1.91782C22.4528 2.20867 21.7974 2.98092 22.1313 3.92499C22.4691 4.88027 23.4757 5.07096 23.8062 5.13351C24.9701 5.35442 25.572 6.01226 25.7583 7.26987C26.1266 9.71344 26.1718 12.3275 25.9006 15.4924C25.825 16.3421 25.6843 16.9879 25.4573 17.525C25.3945 17.6737 25.3393 17.7658 25.3008 17.8201C25.2393 17.7953 25.1436 17.7478 25.0111 17.6571C24.1932 17.0975 23.5768 16.2274 22.9808 15.3863C20.5999 12.0248 18.5972 8.31212 16.8575 4.03452C16.1411 2.28165 14.7943 1.30261 13.0677 1.27727C9.77807 1.22251 6.73565 1.22383 3.76964 1.2815C2.3707 1.30578 1.38968 1.74614 0.853382 2.59057C0.316422 3.43659 0.336085 4.51526 0.911974 5.79715C5.02871 14.9515 8.7667 21.6109 13.0318 27.3901C16.0349 31.4588 19.0579 34.2831 22.5453 36.2783C26.2094 38.3746 30.3417 39.4019 35.1356 39.4018C35.6808 39.4018 36.2354 39.3885 36.7975 39.3617C39.7552 39.2269 40.9585 38.0505 41.0898 35.1698C41.1635 33.6474 41.3329 32.4141 41.9208 31.3425C42.0852 31.0426 42.2708 30.8414 42.417 30.8046C42.5724 30.7658 42.8481 30.861 43.1547 31.0601C43.7151 31.4241 44.1977 31.9176 44.5945 32.3508C44.9967 32.7912 45.4032 33.2461 45.7966 33.6859C46.6336 34.6225 47.4992 35.5909 48.406 36.5147C50.4571 38.6055 52.8217 39.5644 55.4368 39.3635L64.8332 39.3679C64.8335 39.3679 64.8336 39.3679 64.8338 39.3679C64.8636 39.3679 64.8934 39.3669 64.9232 39.365C66.007 39.2928 66.9441 38.6927 67.4944 37.7183C68.157 36.5449 68.147 35.0586 67.4671 33.7409C66.7577 32.371 65.8372 31.1919 65.0277 30.2162ZM65.1506 36.3949C65.021 36.6244 64.8612 36.6662 64.7787 36.6762L55.3843 36.6719C55.384 36.6719 55.3837 36.6719 55.3833 36.6719C55.3462 36.6719 55.3092 36.6733 55.2724 36.6765C53.4216 36.8306 51.8484 36.18 50.3272 34.6295C49.4642 33.7503 48.6199 32.8059 47.8035 31.8924C47.4056 31.4473 46.9943 30.9869 46.581 30.5345C46.0684 29.9747 45.4349 29.3314 44.6208 28.8027C43.402 28.0116 42.3919 28.0355 41.7594 28.1949C41.1335 28.3526 40.2438 28.8026 39.5609 30.0489C38.6762 31.6613 38.4811 33.4009 38.4016 35.0442C38.3557 36.0493 38.1857 36.3148 38.1147 36.3822C38.0217 36.4706 37.7108 36.6261 36.6734 36.6734C31.6884 36.9078 27.5049 36.0151 23.8821 33.9423C20.7305 32.1392 17.9709 29.5491 15.1977 25.792C11.0507 20.1731 7.40194 13.6663 3.36715 4.69407C3.22094 4.36905 3.17581 4.16622 3.16274 4.05761C3.26567 4.02383 3.46679 3.97936 3.81939 3.97289C6.75532 3.91602 9.76593 3.91443 13.0258 3.9688C13.4721 3.9754 13.9803 4.10934 14.3651 5.0509C16.1828 9.52037 18.2825 13.41 20.7845 16.9424C21.4488 17.88 22.2757 19.0471 23.4909 19.8786C24.604 20.6408 25.5073 20.6044 26.0692 20.4397C26.6314 20.2749 27.4116 19.817 27.937 18.5728C28.2761 17.7709 28.481 16.8678 28.5825 15.7269C28.8724 12.3416 28.8209 9.5271 28.4208 6.87239C28.1388 4.9704 27.1567 3.5964 25.6097 2.89475C25.8845 2.7517 26.1941 2.69206 26.624 2.69206H37.1648C37.7579 2.82507 37.8753 2.98132 37.9156 3.03476C38.0863 3.26187 38.184 3.7991 38.2436 4.21887L38.2526 15.9734C38.2289 17.1002 38.7765 19.5993 40.6412 20.2846C40.6565 20.2903 40.6719 20.2956 40.6874 20.3006C42.3849 20.8554 43.5078 19.657 44.1106 19.0132L44.218 18.8989C47.0547 15.8881 48.9649 12.3703 50.4573 9.33048C51.2351 7.76077 51.8938 6.13709 52.4508 4.73749C52.7295 4.03557 52.9832 3.91998 53.5884 3.93278C53.5967 3.93304 53.6049 3.93304 53.6133 3.93304L63.8939 3.94215C64.133 3.94215 64.3826 3.94492 64.5762 3.97804C65.066 4.06144 65.2678 4.16305 65.3343 4.20515C65.3412 4.28314 65.3396 4.50748 65.1915 4.97568C64.4458 7.32318 63.0046 9.31768 61.479 11.4294L61.2967 11.6818C60.504 12.7787 59.667 13.8823 58.8577 14.9497C57.9247 16.1798 56.9603 17.4515 56.0459 18.735C54.091 21.4625 54.2628 23.2726 56.7024 25.6521C57.279 26.2149 57.8699 26.7747 58.4416 27.316C60.0622 28.8512 61.5931 30.3011 62.9594 31.9382C63.6746 32.8004 64.4854 33.836 65.0763 34.9772C65.3846 35.5746 65.309 36.1143 65.1506 36.3949Z" fill="white"/>
<path d="M10.28 8.30415C10.0824 7.91301 9.88639 7.52082 9.69227 7.12783C9.36289 6.46155 8.55633 6.18785 7.88951 6.51724C7.2231 6.84648 6.94967 7.65357 7.27892 8.31999C7.47673 8.72037 7.67639 9.11995 7.87764 9.51835C8.11451 9.98708 8.58839 10.2573 9.07983 10.2573C9.28384 10.2573 9.49115 10.2108 9.6858 10.1124C10.3494 9.777 10.6154 8.96753 10.28 8.30415Z" fill="white"/>
<path d="M18.7221 22.2667C16.5151 19.2766 14.4504 16.0288 12.4103 12.3379C12.0507 11.6873 11.2317 11.4517 10.5812 11.8111C9.93079 12.1707 9.69484 12.9897 10.0544 13.6401C12.1521 17.4349 14.279 20.7796 16.5564 23.8653C16.8203 24.2229 17.2277 24.412 17.6404 24.412C17.918 24.412 18.198 24.3265 18.4385 24.1488C19.0364 23.7075 19.1634 22.8649 18.7221 22.2667Z" fill="white"/>
</svg>
